<?xml version="1.0" encoding="UTF-8" standalone="no"?>
<!-- Created with Inkscape (http://www.inkscape.org/) -->

<svg
   width="146.19444mm"
   height="145.14087mm"
   viewBox="0 0 146.19444 145.14087"
   version="1.1"
   id="svg1"
   xml:space="preserve"
   inkscape:export-filename="bitmap.svg"
   inkscape:export-xdpi="96"
   inkscape:export-ydpi="96"
   xmlns:inkscape="http://www.inkscape.org/namespaces/inkscape"
   xmlns:sodipodi="http://sodipodi.sourceforge.net/DTD/sodipodi-0.dtd"
   xmlns="http://www.w3.org/2000/svg"
   xmlns:svg="http://www.w3.org/2000/svg"><sodipodi:namedview
     id="namedview1"
     pagecolor="#ffffff"
     bordercolor="#000000"
     borderopacity="0.25"
     inkscape:showpageshadow="2"
     inkscape:pageopacity="0.0"
     inkscape:pagecheckerboard="0"
     inkscape:deskcolor="#d1d1d1"
     inkscape:document-units="mm"
     inkscape:zoom="0.60249878"
     inkscape:cx="548.54883"
     inkscape:cy="372.61486"
     inkscape:window-width="1920"
     inkscape:window-height="1009"
     inkscape:window-x="-8"
     inkscape:window-y="-8"
     inkscape:window-maximized="1"
     inkscape:current-layer="layer1" /><defs
     id="defs1" /><g
     inkscape:label="Layer 1"
     inkscape:groupmode="layer"
     id="layer1"
     transform="translate(-31.199817,-15.275596)"><g
       inkscape:label="0"
       id="g294"
       transform="matrix(0.11190504,0,0,0.11190504,112.88102,-56.569642)"><path
         d="m 336.00001,642.51968 h -816.00002 l -249.41531,144 v 960.00002 l 249.41531,-144 H 480.00001 V 786.51968 a 144,144 0 0 0 -144,-144 z"
         style="fill:none;stroke:#000000"
         id="path5" /><path
         style="fill:none;stroke:#000000"
         d="m -480,642.52 v 960"
         id="path6" /><path
         d="m 480.00001,834.51968 h 96 z"
         style="fill:none;stroke:#000000"
         id="path7" /><path
         style="fill:none;stroke:#000000"
         d="M -432,1938.52 H 576"
         id="path8" /><path
         style="fill:none;stroke:#000000"
         d="m 576,1938.52 v -1104"
         id="path9" /><path
         style="fill:none;stroke:#000000"
         d="m -576,1657.95 v 136.57"
         id="path10" /><path
         d="m -576.00001,1794.5197 a 144,144 0 0 0 144,144"
         style="fill:none;stroke:#000000"
         id="path11" /><path
         style="fill:none;stroke:#000000"
         d="M -7.56024,1027.79 H -123.484"
         id="path12" /><path
         style="fill:none;stroke:#000000"
         d="M -123.484,1027.79 V 992.217"
         id="path13" /><path
         d="m -123.48364,992.21703 q 0,-24.90426 -4.44719,-31.72328"
         style="fill:none;stroke:#000000"
         id="path14" /><path
         d="m -127.93083,960.49375 q -4.44719,-6.81905 -14.82397,-6.81905"
         style="fill:none;stroke:#000000"
         id="path15" /><path
         d="m -142.7548,953.6747 q -11.26621,0 -17.04756,9.19782"
         style="fill:none;stroke:#000000"
         id="path16" /><path
         d="m -159.80236,962.87252 q -5.78135,9.19781 -5.78135,27.88991"
         style="fill:none;stroke:#000000"
         id="path17" /><path
         d="m -165.58371,990.76243 q 0,24.02877 6.49939,36.19367"
         style="fill:none;stroke:#000000"
         id="path18" /><path
         d="m -159.08432,1026.9561 q 6.20753,12.1649 35.27178,29.3468"
         style="fill:none;stroke:#000000"
         id="path19" /><path
         d="m -123.81254,1056.3029 q 83.343099,49.4657 104.986079,81.189"
         style="fill:none;stroke:#000000"
         id="path20" /><path
         d="M -18.826461,1137.4919 Q 2.81652,1169.2152 2.81652,1239.7772"
         style="fill:none;stroke:#000000"
         id="path21" /><path
         d="m 2.81652,1239.7772 q 0,51.291 -12.007399,75.6023"
         style="fill:none;stroke:#000000"
         id="path22" /><path
         d="m -9.190879,1315.3795 q -12.007427,24.3113 -46.399011,40.7659"
         style="fill:none;stroke:#000000"
         id="path23" /><path
         d="M -55.58989,1356.1454 Q -89.981475,1372.6 -135.6393,1372.6"
         style="fill:none;stroke:#000000"
         id="path24" /><path
         d="m -135.6393,1372.6 q -50.105,0 -85.53427,-18.9747"
         style="fill:none;stroke:#000000"
         id="path25" /><path
         d="m -221.17357,1353.6253 q -35.42929,-18.9747 -46.39902,-48.3261"
         style="fill:none;stroke:#000000"
         id="path26" /><path
         d="m -267.57259,1305.2992 q -10.96974,-29.3515 -10.96974,-83.3107"
         style="fill:none;stroke:#000000"
         id="path27" /><path
         style="fill:none;stroke:#000000"
         d="m -278.542,1221.99 v -31.43"
         id="path28" /><path
         style="fill:none;stroke:#000000"
         d="m -278.542,1190.56 h 115.923"
         id="path29" /><path
         style="fill:none;stroke:#000000"
         d="m -162.619,1190.56 v 58.41"
         id="path30" /><path
         d="m -162.61891,1248.9681 q 0,26.9796 4.8919,34.6881"
         style="fill:none;stroke:#000000"
         id="path31" /><path
         d="m -157.72701,1283.6562 q 4.89192,7.7085 17.34405,7.7085"
         style="fill:none;stroke:#000000"
         id="path32" /><path
         d="m -140.38296,1291.3647 q 12.45213,0 18.52995,-9.7839"
         style="fill:none;stroke:#000000"
         id="path33" /><path
         d="m -121.85301,1281.5808 q 6.07783,-9.7838 6.07783,-29.055"
         style="fill:none;stroke:#000000"
         id="path34" /><path
         d="m -115.77518,1252.5258 q 0,-42.3965 -11.5627,-55.4416"
         style="fill:none;stroke:#000000"
         id="path35" /><path
         d="m -127.33788,1197.0842 q -11.85917,-13.0451 -58.40642,-43.5824"
         style="fill:none;stroke:#000000"
         id="path36" /><path
         d="m -185.7443,1153.5018 q -46.54725,-30.8339 -61.66769,-44.7684"
         style="fill:none;stroke:#000000"
         id="path37" /><path
         d="m -247.41199,1108.7334 q -15.12045,-13.9345 -25.05251,-38.5423"
         style="fill:none;stroke:#000000"
         id="path38" /><path
         d="m -272.4645,1070.1911 q -9.93206,-24.6078 -9.93206,-62.8536"
         style="fill:none;stroke:#000000"
         id="path39" /><path
         d="m -282.39656,1007.3375 q 0,-55.14518 14.08277,-80.64242"
         style="fill:none;stroke:#000000"
         id="path40" /><path
         d="m -268.31379,926.69508 q 14.08277,-25.49721 45.50958,-39.87648"
         style="fill:none;stroke:#000000"
         id="path41" /><path
         d="m -222.80421,886.8186 q 31.4268,-14.37921 75.89871,-14.37921"
         style="fill:none;stroke:#000000"
         id="path42" /><path
         d="m -146.9055,872.43939 q 48.622595,0 82.865964,15.71342"
         style="fill:none;stroke:#000000"
         id="path43" /><path
         d="m -64.039536,888.15281 q 34.243341,15.71337 45.361305,39.57996"
         style="fill:none;stroke:#000000"
         id="path44" /><path
         d="m -18.678231,927.73277 q 11.117992,23.8666 11.117992,81.08713"
         style="fill:none;stroke:#000000"
         id="path45" /><path
         style="fill:none;stroke:#000000"
         d="m -7.56024,1008.82 v 18.97"
         id="path46" /><path
         style="fill:none;stroke:#000000"
         d="m 293.366,882.52 v 96.059"
         id="path47" /><path
         style="fill:none;stroke:#000000"
         d="m 293.366,978.579 h -74.12"
         id="path48" /><path
         style="fill:none;stroke:#000000"
         d="M 219.246,978.579 V 1362.52"
         id="path49" /><path
         style="fill:none;stroke:#000000"
         d="M 219.246,1362.52 H 94.4287"
         id="path50" /><path
         style="fill:none;stroke:#000000"
         d="M 94.4287,1362.52 V 978.579"
         id="path51" /><path
         style="fill:none;stroke:#000000"
         d="M 94.4287,978.579 H 20.6053"
         id="path52" /><path
         style="fill:none;stroke:#000000"
         d="M 20.6053,978.579 V 882.52"
         id="path53" /><path
         style="fill:none;stroke:#000000"
         d="M 20.6053,882.52 H 293.366"
         id="path54" /><path
         style="fill:none;stroke:#000000"
         d="M -182.391,1667.2 H -214.85"
         id="path55" /><path
         style="fill:none;stroke:#000000"
         d="m -214.85,1667.2 v -9.97"
         id="path56" /><path
         d="m -214.84968,1657.2349 q 0,-6.9731 -1.24521,-8.8825"
         style="fill:none;stroke:#000000"
         id="path57" /><path
         d="m -216.09489,1648.3524 q -1.24521,-1.9093 -4.15071,-1.9093"
         style="fill:none;stroke:#000000"
         id="path58" /><path
         d="m -220.2456,1646.4431 q -3.15454,0 -4.77332,2.5754"
         style="fill:none;stroke:#000000"
         id="path59" /><path
         d="m -225.01892,1649.0185 q -1.61877,2.5754 -1.61877,7.8092"
         style="fill:none;stroke:#000000"
         id="path60" /><path
         d="m -226.63769,1656.8277 q 0,6.728 1.81982,10.1342"
         style="fill:none;stroke:#000000"
         id="path61" /><path
         d="m -224.81787,1666.9619 q 1.73811,3.4062 9.8761,8.2171"
         style="fill:none;stroke:#000000"
         id="path62" /><path
         d="m -214.94177,1675.179 q 23.33607,13.8504 29.39611,22.7329"
         style="fill:none;stroke:#000000"
         id="path63" /><path
         d="m -185.54566,1697.9119 q 6.06004,8.8825 6.06004,28.6399"
         style="fill:none;stroke:#000000"
         id="path64" /><path
         d="m -179.48562,1726.5518 q 0,14.3615 -3.36208,21.1686"
         style="fill:none;stroke:#000000"
         id="path65" /><path
         d="m -182.8477,1747.7204 q -3.36208,6.8072 -12.99172,11.4145"
         style="fill:none;stroke:#000000"
         id="path66" /><path
         d="m -195.83942,1759.1349 q -9.62965,4.6073 -22.41384,4.6073"
         style="fill:none;stroke:#000000"
         id="path67" /><path
         d="m -218.25326,1763.7422 q -14.0294,0 -23.9496,-5.3129"
         style="fill:none;stroke:#000000"
         id="path68" /><path
         d="m -242.20286,1758.4293 q -9.92019,-5.3129 -12.99172,-13.5313"
         style="fill:none;stroke:#000000"
         id="path69" /><path
         d="m -255.19458,1744.898 q -3.07153,-8.2185 -3.07153,-23.327"
         style="fill:none;stroke:#000000"
         id="path70" /><path
         style="fill:none;stroke:#000000"
         d="m -258.266,1721.57 v -8.8"
         id="path71" /><path
         style="fill:none;stroke:#000000"
         d="m -258.266,1712.77 h 32.458"
         id="path72" /><path
         style="fill:none;stroke:#000000"
         d="m -225.808,1712.77 v 16.36"
         id="path73" /><path
         d="m -225.80755,1729.1252 q 0,7.5543 1.36973,9.7127"
         style="fill:none;stroke:#000000"
         id="path74" /><path
         d="m -224.43782,1738.8379 q 1.36974,2.1584 4.85633,2.1584"
         style="fill:none;stroke:#000000"
         id="path75" /><path
         d="m -219.58149,1740.9963 q 3.4866,0 5.18839,-2.7395"
         style="fill:none;stroke:#000000"
         id="path76" /><path
         d="m -214.3931,1738.2568 q 1.70179,-2.7395 1.70179,-8.1354"
         style="fill:none;stroke:#000000"
         id="path77" /><path
         d="m -212.69131,1730.1214 q 0,-11.871 -3.23755,-15.5236"
         style="fill:none;stroke:#000000"
         id="path78" /><path
         d="m -215.92886,1714.5978 q -3.32057,-3.6527 -16.3538,-12.2031"
         style="fill:none;stroke:#000000"
         id="path79" /><path
         d="m -232.28266,1702.3947 q -13.03323,-8.6335 -17.26695,-12.5352"
         style="fill:none;stroke:#000000"
         id="path80" /><path
         d="m -249.54961,1689.8595 q -4.23373,-3.9016 -7.01471,-10.7918"
         style="fill:none;stroke:#000000"
         id="path81" /><path
         d="m -256.56432,1679.0677 q -2.78097,-6.8902 -2.78097,-17.599"
         style="fill:none;stroke:#000000"
         id="path82" /><path
         d="m -259.34529,1661.4687 q 0,-15.4407 3.94317,-22.5799"
         style="fill:none;stroke:#000000"
         id="path83" /><path
         d="m -255.40212,1638.8888 q 3.94318,-7.1392 12.74269,-11.1654"
         style="fill:none;stroke:#000000"
         id="path84" /><path
         d="m -242.65943,1627.7234 q 8.7995,-4.0262 21.25163,-4.0262"
         style="fill:none;stroke:#000000"
         id="path85" /><path
         d="m -221.4078,1623.6972 q 13.61433,0 23.20248,4.3998"
         style="fill:none;stroke:#000000"
         id="path86" /><path
         d="m -198.20532,1628.097 q 9.58813,4.3997 12.70116,11.0824"
         style="fill:none;stroke:#000000"
         id="path87" /><path
         d="m -185.50416,1639.1794 q 3.11304,6.6826 3.11304,22.7043"
         style="fill:none;stroke:#000000"
         id="path88" /><path
         style="fill:none;stroke:#000000"
         d="m -182.391,1661.88 v 5.32"
         id="path89" /><path
         style="fill:none;stroke:#000000"
         d="m -134.16,1636.07 v 17.35"
         id="path90" /><path
         style="fill:none;stroke:#000000"
         d="m -134.16,1653.42 h 9.049"
         id="path91" /><path
         style="fill:none;stroke:#000000"
         d="m -125.111,1653.42 v 17.43"
         id="path92" /><path
         style="fill:none;stroke:#000000"
         d="m -125.111,1670.85 h -9.049"
         id="path93" /><path
         style="fill:none;stroke:#000000"
         d="m -134.16,1670.85 v 58.94"
         id="path94" /><path
         d="m -134.15986,1729.7894 q 0,10.8748 1.12069,12.12"
         style="fill:none;stroke:#000000"
         id="path95" /><path
         d="m -133.03917,1741.9094 q 1.12069,1.2453 9.3391,1.2453"
         style="fill:none;stroke:#000000"
         id="path96" /><path
         style="fill:none;stroke:#000000"
         d="m -123.7,1743.15 v 17.77"
         id="path97" /><path
         style="fill:none;stroke:#000000"
         d="m -123.7,1760.92 h -13.531"
         id="path98" /><path
         d="m -137.23139,1760.9197 q -11.45596,0 -16.3538,-0.9547"
         style="fill:none;stroke:#000000"
         id="path99" /><path
         d="m -153.58519,1759.965 q -4.89784,-0.9546 -8.63348,-4.3997"
         style="fill:none;stroke:#000000"
         id="path100" /><path
         d="m -162.21867,1755.5653 q -3.73564,-3.4451 -4.64879,-7.8864"
         style="fill:none;stroke:#000000"
         id="path101" /><path
         d="m -166.86746,1747.6789 q -0.91316,-4.4412 -0.91316,-20.878"
         style="fill:none;stroke:#000000"
         id="path102" /><path
         style="fill:none;stroke:#000000"
         d="m -167.781,1726.8 v -55.95"
         id="path103" /><path
         style="fill:none;stroke:#000000"
         d="m -167.781,1670.85 h -7.222"
         id="path104" /><path
         style="fill:none;stroke:#000000"
         d="m -175.003,1670.85 v -17.43"
         id="path105" /><path
         style="fill:none;stroke:#000000"
         d="m -175.003,1653.42 h 7.222"
         id="path106" /><path
         style="fill:none;stroke:#000000"
         d="m -167.781,1653.42 v -17.35"
         id="path107" /><path
         style="fill:none;stroke:#000000"
         d="m -167.781,1636.07 h 33.621"
         id="path108" /><path
         style="fill:none;stroke:#000000"
         d="M -41.765,1707.79 H -85.1815"
         id="path109" /><path
         style="fill:none;stroke:#000000"
         d="m -85.1815,1707.79 v 23.83"
         id="path110" /><path
         d="m -85.181482,1731.6157 q 0,7.4713 1.079185,9.6296"
         style="fill:none;stroke:#000000"
         id="path111" /><path
         d="m -84.102297,1741.2453 q 1.079185,2.1584 4.150711,2.1584"
         style="fill:none;stroke:#000000"
         id="path112" /><path
         d="m -79.951586,1743.4037 q 3.81865,0 5.105374,-2.864"
         style="fill:none;stroke:#000000"
         id="path113" /><path
         d="m -74.846212,1740.5397 q 1.28672,-2.864 1.28672,-11.0824"
         style="fill:none;stroke:#000000"
         id="path114" /><path
         style="fill:none;stroke:#000000"
         d="m -73.5595,1729.46 v -14.53"
         id="path115" /><path
         style="fill:none;stroke:#000000"
         d="M -73.5595,1714.93 H -41.765"
         id="path116" /><path
         style="fill:none;stroke:#000000"
         d="m -41.765,1714.93 v 8.14"
         id="path117" /><path
         d="m -41.765048,1723.0652 q 0,10.2108 -1.286723,15.6897"
         style="fill:none;stroke:#000000"
         id="path118" /><path
         d="m -43.051771,1738.7549 q -1.286717,5.4789 -6.018527,11.705"
         style="fill:none;stroke:#000000"
         id="path119" /><path
         d="m -49.070298,1750.4599 q -4.73181,6.2261 -11.995554,9.3391"
         style="fill:none;stroke:#000000"
         id="path120" /><path
         d="m -61.065852,1759.799 q -7.263747,3.113 -18.221623,3.113"
         style="fill:none;stroke:#000000"
         id="path121" /><path
         d="m -79.287475,1762.912 q -10.625817,0 -18.761208,-3.0715"
         style="fill:none;stroke:#000000"
         id="path122" /><path
         d="m -98.048683,1759.8405 q -8.135397,-3.0715 -12.659667,-8.4259"
         style="fill:none;stroke:#000000"
         id="path123" /><path
         d="m -110.70835,1751.4146 q -4.52428,-5.3544 -6.26757,-11.7881"
         style="fill:none;stroke:#000000"
         id="path124" /><path
         d="m -116.97592,1739.6265 q -1.7433,-6.4336 -1.7433,-18.7197"
         style="fill:none;stroke:#000000"
         id="path125" /><path
         style="fill:none;stroke:#000000"
         d="m -118.719,1720.91 v -32.13"
         id="path126" /><path
         d="m -118.71922,1688.7803 q 0,-14.4444 3.90166,-22.7874"
         style="fill:none;stroke:#000000"
         id="path127" /><path
         d="m -114.81756,1665.9929 q 3.90167,-8.3429 12.78419,-12.7841"
         style="fill:none;stroke:#000000"
         id="path128" /><path
         d="m -102.03337,1653.2088 q 8.882523,-4.4413 20.421497,-4.4413"
         style="fill:none;stroke:#000000"
         id="path129" /><path
         d="m -81.611873,1648.7675 q 14.112417,0 23.285493,5.3544"
         style="fill:none;stroke:#000000"
         id="path130" /><path
         d="m -58.32638,1654.1219 q 9.173069,5.3544 12.867201,14.1954"
         style="fill:none;stroke:#000000"
         id="path131" /><path
         d="m -45.459179,1668.3173 q 3.694131,8.8411 3.694131,24.8628"
         style="fill:none;stroke:#000000"
         id="path132" /><path
         style="fill:none;stroke:#000000"
         d="m -41.765,1693.18 v 14.61"
         id="path133" /><path
         style="fill:none;stroke:#000000"
         d="m -75.3858,1689.86 v -8.05"
         id="path134" /><path
         d="m -75.385805,1681.8072 q 0,-8.5505 -0.913156,-11.0409"
         style="fill:none;stroke:#000000"
         id="path135" /><path
         d="m -76.298961,1670.7663 q -0.913156,-2.4905 -3.735641,-2.4905"
         style="fill:none;stroke:#000000"
         id="path136" /><path
         d="m -80.034602,1668.2758 q -3.486597,0 -4.31674,2.1169"
         style="fill:none;stroke:#000000"
         id="path137" /><path
         d="m -84.351342,1670.3927 q -0.83014,2.1169 -0.83014,11.4145"
         style="fill:none;stroke:#000000"
         id="path138" /><path
         style="fill:none;stroke:#000000"
         d="m -85.1815,1681.81 v 8.05"
         id="path139" /><path
         style="fill:none;stroke:#000000"
         d="m -85.1815,1689.86 h 9.7957"
         id="path140" /><path
         style="fill:none;stroke:#000000"
         d="M 38.5927,1650.76 22.903,1760.92"
         id="path141" /><path
         style="fill:none;stroke:#000000"
         d="M 22.903,1760.92 H -20.9285"
         id="path142" /><path
         style="fill:none;stroke:#000000"
         d="M -20.9285,1760.92 -37.7804,1650.76"
         id="path143" /><path
         style="fill:none;stroke:#000000"
         d="m -37.7804,1650.76 h 29.95"
         id="path144" /><path
         style="fill:none;stroke:#000000"
         d="m -7.8304,1650.76 9.44027,80.44"
         id="path145" /><path
         d="m 1.609873,1731.2006 q 1.109019,-8.876 3.781039,-43.2361"
         style="fill:none;stroke:#000000"
         id="path146" /><path
         d="m 5.390912,1687.9645 q 1.426806,-19.1815 3.253119,-37.2047"
         style="fill:none;stroke:#000000"
         id="path147" /><path
         style="fill:none;stroke:#000000"
         d="M 8.64403,1650.76 H 38.5927"
         id="path148" /><path
         style="fill:none;stroke:#000000"
         d="M 121.524,1707.79 H 78.1075"
         id="path149" /><path
         style="fill:none;stroke:#000000"
         d="m 78.1075,1707.79 v 23.83"
         id="path150" /><path
         d="m 78.107469,1731.6157 q 0,7.4713 1.079185,9.6296"
         style="fill:none;stroke:#000000"
         id="path151" /><path
         d="m 79.186654,1741.2453 q 1.079185,2.1584 4.150711,2.1584"
         style="fill:none;stroke:#000000"
         id="path152" /><path
         d="m 83.337365,1743.4037 q 3.81865,0 5.105374,-2.864"
         style="fill:none;stroke:#000000"
         id="path153" /><path
         d="m 88.442739,1740.5397 q 1.28672,-2.864 1.28672,-11.0824"
         style="fill:none;stroke:#000000"
         id="path154" /><path
         style="fill:none;stroke:#000000"
         d="m 89.7295,1729.46 v -14.53"
         id="path155" /><path
         style="fill:none;stroke:#000000"
         d="M 89.7295,1714.93 H 121.524"
         id="path156" /><path
         style="fill:none;stroke:#000000"
         d="m 121.524,1714.93 v 8.14"
         id="path157" /><path
         d="m 121.5239,1723.0652 q 0,10.2108 -1.28672,15.6897"
         style="fill:none;stroke:#000000"
         id="path158" /><path
         d="m 120.23718,1738.7549 q -1.28672,5.4789 -6.01853,11.705"
         style="fill:none;stroke:#000000"
         id="path159" /><path
         d="m 114.21865,1750.4599 q -4.73181,6.2261 -11.99555,9.3391"
         style="fill:none;stroke:#000000"
         id="path160" /><path
         d="m 102.2231,1759.799 q -7.263748,3.113 -18.221624,3.113"
         style="fill:none;stroke:#000000"
         id="path161" /><path
         d="m 84.001476,1762.912 q -10.625817,0 -18.761208,-3.0715"
         style="fill:none;stroke:#000000"
         id="path162" /><path
         d="M 65.240268,1759.8405 Q 57.104874,1756.769 52.5806,1751.4146"
         style="fill:none;stroke:#000000"
         id="path163" /><path
         d="m 52.5806,1751.4146 q -4.524274,-5.3544 -6.267573,-11.7881"
         style="fill:none;stroke:#000000"
         id="path164" /><path
         d="m 46.313027,1739.6265 q -1.743298,-6.4336 -1.743298,-18.7197"
         style="fill:none;stroke:#000000"
         id="path165" /><path
         style="fill:none;stroke:#000000"
         d="m 44.5697,1720.91 v -32.13"
         id="path166" /><path
         d="m 44.569729,1688.7803 q 0,-14.4444 3.901667,-22.7874"
         style="fill:none;stroke:#000000"
         id="path167" /><path
         d="m 48.471396,1665.9929 q 3.901668,-8.3429 12.78419,-12.7841"
         style="fill:none;stroke:#000000"
         id="path168" /><path
         d="m 61.255586,1653.2088 q 8.882517,-4.4413 20.421492,-4.4413"
         style="fill:none;stroke:#000000"
         id="path169" /><path
         d="m 81.677078,1648.7675 q 14.112417,0 23.285492,5.3544"
         style="fill:none;stroke:#000000"
         id="path170" /><path
         d="m 104.96257,1654.1219 q 9.17307,5.3544 12.8672,14.1954"
         style="fill:none;stroke:#000000"
         id="path171" /><path
         d="m 117.82977,1668.3173 q 3.69413,8.8411 3.69413,24.8628"
         style="fill:none;stroke:#000000"
         id="path172" /><path
         style="fill:none;stroke:#000000"
         d="m 121.524,1693.18 v 14.61"
         id="path173" /><path
         style="fill:none;stroke:#000000"
         d="m 87.9031,1689.86 v -8.05"
         id="path174" /><path
         d="m 87.903146,1681.8072 q 0,-8.5505 -0.913156,-11.0409"
         style="fill:none;stroke:#000000"
         id="path175" /><path
         d="m 86.98999,1670.7663 q -0.913156,-2.4905 -3.735641,-2.4905"
         style="fill:none;stroke:#000000"
         id="path176" /><path
         d="m 83.254349,1668.2758 q -3.486597,0 -4.31674,2.1169"
         style="fill:none;stroke:#000000"
         id="path177" /><path
         d="m 78.937609,1670.3927 q -0.83014,2.1169 -0.83014,11.4145"
         style="fill:none;stroke:#000000"
         id="path178" /><path
         style="fill:none;stroke:#000000"
         d="m 78.1075,1681.81 v 8.05"
         id="path179" /><path
         style="fill:none;stroke:#000000"
         d="m 78.1075,1689.86 h 9.7956"
         id="path180" /><path
         style="fill:none;stroke:#000000"
         d="m 166.601,1650.76 -0.581,10.15"
         id="path181" /><path
         d="m 166.01952,1660.9083 q 3.65262,-6.0704 8.92402,-9.1056"
         style="fill:none;stroke:#000000"
         id="path182" /><path
         d="m 174.94354,1651.8027 q 5.27141,-3.0352 12.16158,-3.0352"
         style="fill:none;stroke:#000000"
         id="path183" /><path
         d="m 187.10512,1648.7675 q 8.63347,0 14.11241,4.0677"
         style="fill:none;stroke:#000000"
         id="path184" /><path
         d="m 201.21753,1652.8352 q 5.47894,4.0677 7.05621,10.2523"
         style="fill:none;stroke:#000000"
         id="path185" /><path
         d="m 208.27374,1663.0875 q 1.57727,6.1845 1.57727,20.629"
         style="fill:none;stroke:#000000"
         id="path186" /><path
         style="fill:none;stroke:#000000"
         d="m 209.851,1683.72 v 77.2"
         id="path187" /><path
         style="fill:none;stroke:#000000"
         d="M 209.851,1760.92 H 176.313"
         id="path188" /><path
         style="fill:none;stroke:#000000"
         d="m 176.313,1760.92 v -76.29"
         id="path189" /><path
         d="m 176.31328,1684.6296 q 0,-11.3729 -0.74713,-13.8633"
         style="fill:none;stroke:#000000"
         id="path190" /><path
         d="m 175.56615,1670.7663 q -0.74713,-2.4905 -4.15071,-2.4905"
         style="fill:none;stroke:#000000"
         id="path191" /><path
         d="m 171.41544,1668.2758 q -3.56961,0 -4.48277,2.864"
         style="fill:none;stroke:#000000"
         id="path192" /><path
         d="m 166.93267,1671.1398 q -0.91315,2.864 -0.91315,15.3161"
         style="fill:none;stroke:#000000"
         id="path193" /><path
         style="fill:none;stroke:#000000"
         d="m 166.02,1686.46 v 74.46"
         id="path194" /><path
         style="fill:none;stroke:#000000"
         d="M 166.02,1760.92 H 132.482"
         id="path195" /><path
         style="fill:none;stroke:#000000"
         d="M 132.482,1760.92 V 1650.76"
         id="path196" /><path
         style="fill:none;stroke:#000000"
         d="m 132.482,1650.76 h 34.119"
         id="path197" /><path
         style="fill:none;stroke:#000000"
         d="m -104.705,1770.52 v 26.9"
         id="path198" /><path
         style="fill:none;stroke:#000000"
         d="m -104.705,1797.42 h -20.753"
         id="path199" /><path
         style="fill:none;stroke:#000000"
         d="m -125.458,1797.42 v 107.5"
         id="path200" /><path
         style="fill:none;stroke:#000000"
         d="m -125.458,1904.92 h -34.949"
         id="path201" /><path
         style="fill:none;stroke:#000000"
         d="m -160.407,1904.92 v -107.5"
         id="path202" /><path
         style="fill:none;stroke:#000000"
         d="m -160.407,1797.42 h -20.671"
         id="path203" /><path
         style="fill:none;stroke:#000000"
         d="m -181.078,1797.42 v -26.9"
         id="path204" /><path
         style="fill:none;stroke:#000000"
         d="m -181.078,1770.52 h 76.373"
         id="path205" /><path
         style="fill:none;stroke:#000000"
         d="m -64.1937,1770.52 v 30.24"
         id="path206" /><path
         d="m -64.193694,1800.7576 q 4.316737,-3.995 9.339098,-5.9926"
         style="fill:none;stroke:#000000"
         id="path207" /><path
         d="m -54.854596,1794.765 q 5.022361,-1.9975 10.75034,-1.9975"
         style="fill:none;stroke:#000000"
         id="path208" /><path
         d="m -44.104256,1792.7675 q 8.799505,0 14.984064,4.4828"
         style="fill:none;stroke:#000000"
         id="path209" /><path
         d="m -29.120192,1797.2503 q 6.184559,4.4827 7.554295,10.3352"
         style="fill:none;stroke:#000000"
         id="path210" /><path
         d="m -21.565897,1807.5855 q 1.369729,5.8525 1.369729,21.3762"
         style="fill:none;stroke:#000000"
         id="path211" /><path
         style="fill:none;stroke:#000000"
         d="m -20.1962,1828.96 v 75.96"
         id="path212" /><path
         style="fill:none;stroke:#000000"
         d="M -20.1962,1904.92 H -53.7339"
         id="path213" /><path
         style="fill:none;stroke:#000000"
         d="m -53.7339,1904.92 v -77.54"
         id="path214" /><path
         d="m -53.733905,1827.3844 q 0,-9.6296 -0.954662,-12.3691"
         style="fill:none;stroke:#000000"
         id="path215" /><path
         d="m -54.688567,1815.0153 q -0.954663,-2.7395 -4.275234,-2.7395"
         style="fill:none;stroke:#000000"
         id="path216" /><path
         d="m -58.963801,1812.2758 q -3.071523,0 -4.150708,2.8225"
         style="fill:none;stroke:#000000"
         id="path217" /><path
         d="m -63.114509,1815.0983 q -1.079185,2.8225 -1.079185,11.2069"
         style="fill:none;stroke:#000000"
         id="path218" /><path
         style="fill:none;stroke:#000000"
         d="m -64.1937,1826.31 v 78.61"
         id="path219" /><path
         style="fill:none;stroke:#000000"
         d="M -64.1937,1904.92 H -97.7314"
         id="path220" /><path
         style="fill:none;stroke:#000000"
         d="m -97.7314,1904.92 v -134.4"
         id="path221" /><path
         style="fill:none;stroke:#000000"
         d="m -97.7314,1770.52 h 33.5377"
         id="path222" /><path
         style="fill:none;stroke:#000000"
         d="m 25.8767,1770.52 v 17.52"
         id="path223" /><path
         style="fill:none;stroke:#000000"
         d="M 25.8767,1788.04 H -8.65719"
         id="path224" /><path
         style="fill:none;stroke:#000000"
         d="m -8.65719,1788.04 v -17.52"
         id="path225" /><path
         style="fill:none;stroke:#000000"
         d="M -8.65719,1770.52 H 25.8767"
         id="path226" /><path
         style="fill:none;stroke:#000000"
         d="m 25.8767,1794.76 v 110.16"
         id="path227" /><path
         style="fill:none;stroke:#000000"
         d="M 25.8767,1904.92 H -8.65719"
         id="path228" /><path
         style="fill:none;stroke:#000000"
         d="M -8.65719,1904.92 V 1794.76"
         id="path229" /><path
         style="fill:none;stroke:#000000"
         d="M -8.65719,1794.76 H 25.8767"
         id="path230" /><path
         style="fill:none;stroke:#000000"
         d="m 71.4515,1794.76 -1.3282,14.49"
         id="path231" /><path
         d="m 70.123291,1809.2458 q 7.30525,-15.5625 21.168623,-16.4783"
         style="fill:none;stroke:#000000"
         id="path232" /><path
         style="fill:none;stroke:#000000"
         d="m 91.2919,1792.77 v 38.77"
         id="path233" /><path
         d="m 91.291914,1831.5351 q -9.214579,0 -13.531319,2.4905"
         style="fill:none;stroke:#000000"
         id="path234" /><path
         d="m 77.760595,1834.0256 q -4.316737,2.4904 -5.312909,6.9317"
         style="fill:none;stroke:#000000"
         id="path235" /><path
         d="m 72.447686,1840.9573 q -0.996169,4.4412 -0.996169,20.463"
         style="fill:none;stroke:#000000"
         id="path236" /><path
         style="fill:none;stroke:#000000"
         d="m 71.4515,1861.42 v 43.5"
         id="path237" /><path
         style="fill:none;stroke:#000000"
         d="M 71.4515,1904.92 H 37.9138"
         id="path238" /><path
         style="fill:none;stroke:#000000"
         d="M 37.9138,1904.92 V 1794.76"
         id="path239" /><path
         style="fill:none;stroke:#000000"
         d="M 37.9138,1794.76 H 71.4515"
         id="path240" /><path
         style="fill:none;stroke:#000000"
         d="m 133.297,1770.52 v 17.52"
         id="path241" /><path
         style="fill:none;stroke:#000000"
         d="M 133.297,1788.04 H 98.7632"
         id="path242" /><path
         style="fill:none;stroke:#000000"
         d="m 98.7632,1788.04 v -17.52"
         id="path243" /><path
         style="fill:none;stroke:#000000"
         d="M 98.7632,1770.52 H 133.297"
         id="path244" /><path
         style="fill:none;stroke:#000000"
         d="m 133.297,1794.76 v 110.16"
         id="path245" /><path
         style="fill:none;stroke:#000000"
         d="M 133.297,1904.92 H 98.7632"
         id="path246" /><path
         style="fill:none;stroke:#000000"
         d="M 98.7632,1904.92 V 1794.76"
         id="path247" /><path
         style="fill:none;stroke:#000000"
         d="M 98.7632,1794.76 H 133.297"
         id="path248" /><path
         style="fill:none;stroke:#000000"
         d="m 221.209,1833.44 v 26.98"
         id="path249" /><path
         d="m 221.20915,1860.4241 q 0,14.8595 -1.49425,21.7912"
         style="fill:none;stroke:#000000"
         id="path250" /><path
         d="m 219.7149,1882.2153 q -1.49426,6.9317 -6.3921,12.9502"
         style="fill:none;stroke:#000000"
         id="path251" /><path
         d="m 213.3228,1895.1655 q -4.89784,6.0186 -12.57666,8.8825"
         style="fill:none;stroke:#000000"
         id="path252" /><path
         d="m 200.74614,1904.048 q -7.67881,2.864 -17.64051,2.864"
         style="fill:none;stroke:#000000"
         id="path253" /><path
         d="m 183.10563,1906.912 q -11.12391,0 -18.84423,-2.4489"
         style="fill:none;stroke:#000000"
         id="path254" /><path
         d="m 164.2614,1904.4631 q -7.72032,-2.4489 -11.99555,-7.3882"
         style="fill:none;stroke:#000000"
         id="path255" /><path
         d="m 152.26585,1897.0749 q -4.27523,-4.9394 -6.10155,-11.9541"
         style="fill:none;stroke:#000000"
         id="path256" /><path
         d="m 146.1643,1885.1208 q -1.82631,-7.0147 -1.82631,-21.0441"
         style="fill:none;stroke:#000000"
         id="path257" /><path
         style="fill:none;stroke:#000000"
         d="m 144.338,1864.08 v -28.23"
         id="path258" /><path
         d="m 144.33799,1835.8519 q 0,-15.3577 3.32057,-23.9911"
         style="fill:none;stroke:#000000"
         id="path259" /><path
         d="m 147.65856,1811.8608 q 3.32057,-8.6335 11.95404,-13.8634"
         style="fill:none;stroke:#000000"
         id="path260" /><path
         d="m 159.6126,1797.9974 q 8.63348,-5.2299 22.08178,-5.2299"
         style="fill:none;stroke:#000000"
         id="path261" /><path
         d="m 181.69438,1792.7675 q 11.28994,0 19.38382,3.3621"
         style="fill:none;stroke:#000000"
         id="path262" /><path
         d="m 201.0782,1796.1296 q 8.09389,3.3621 12.49364,8.758"
         style="fill:none;stroke:#000000"
         id="path263" /><path
         d="m 213.57184,1804.8876 q 4.39976,5.3959 6.01853,11.1239"
         style="fill:none;stroke:#000000"
         id="path264" /><path
         d="m 219.59037,1816.0115 q 1.61878,5.728 1.61878,17.433"
         style="fill:none;stroke:#000000"
         id="path265" /><path
         d="m 187.67141,1825.143 q 0,-8.4674 -0.91316,-10.6673"
         style="fill:none;stroke:#000000"
         id="path266" /><path
         d="m 186.75825,1814.4757 q -0.91315,-2.1999 -3.90167,-2.1999"
         style="fill:none;stroke:#000000"
         id="path267" /><path
         d="m 182.85658,1812.2758 q -2.98851,0 -3.98468,2.1999"
         style="fill:none;stroke:#000000"
         id="path268" /><path
         d="m 178.8719,1814.4757 q -0.99617,2.1999 -0.99617,10.6673"
         style="fill:none;stroke:#000000"
         id="path269" /><path
         style="fill:none;stroke:#000000"
         d="m 177.876,1825.14 v 49.73"
         id="path270" /><path
         d="m 177.87573,1874.8686 q 0,7.8033 0.99617,10.1692"
         style="fill:none;stroke:#000000"
         id="path271" /><path
         d="m 178.8719,1885.0378 q 0.99617,2.3659 3.90167,2.3659"
         style="fill:none;stroke:#000000"
         id="path272" /><path
         d="m 182.77357,1887.4037 q 2.98851,0 3.94317,-2.1584"
         style="fill:none;stroke:#000000"
         id="path273" /><path
         d="m 186.71674,1885.2453 q 0.95467,-2.1583 0.95467,-9.2976"
         style="fill:none;stroke:#000000"
         id="path274" /><path
         style="fill:none;stroke:#000000"
         d="m 187.671,1875.95 v -50.81"
         id="path275" /><path
         style="fill:none;stroke:#000000"
         d="m 267.614,1780.07 v 17.35"
         id="path276" /><path
         style="fill:none;stroke:#000000"
         d="m 267.614,1797.42 h 9.049"
         id="path277" /><path
         style="fill:none;stroke:#000000"
         d="m 276.663,1797.42 v 17.43"
         id="path278" /><path
         style="fill:none;stroke:#000000"
         d="m 276.663,1814.85 h -9.049"
         id="path279" /><path
         style="fill:none;stroke:#000000"
         d="m 267.614,1814.85 v 58.94"
         id="path280" /><path
         d="m 267.61409,1873.7894 q 0,10.8748 1.12069,12.12"
         style="fill:none;stroke:#000000"
         id="path281" /><path
         d="m 268.73478,1885.9094 q 1.12069,1.2453 9.3391,1.2453"
         style="fill:none;stroke:#000000"
         id="path282" /><path
         style="fill:none;stroke:#000000"
         d="m 278.074,1887.15 v 17.77"
         id="path283" /><path
         style="fill:none;stroke:#000000"
         d="M 278.074,1904.92 H 264.543"
         id="path284" /><path
         d="m 264.54256,1904.9197 q -11.45596,0 -16.3538,-0.9547"
         style="fill:none;stroke:#000000"
         id="path285" /><path
         d="m 248.18876,1903.965 q -4.89784,-0.9546 -8.63347,-4.3997"
         style="fill:none;stroke:#000000"
         id="path286" /><path
         d="m 239.55529,1899.5653 q -3.73564,-3.4451 -4.6488,-7.8864"
         style="fill:none;stroke:#000000"
         id="path287" /><path
         d="m 234.90649,1891.6789 q -0.91316,-4.4412 -0.91316,-20.878"
         style="fill:none;stroke:#000000"
         id="path288" /><path
         style="fill:none;stroke:#000000"
         d="m 233.993,1870.8 v -55.95"
         id="path289" /><path
         style="fill:none;stroke:#000000"
         d="m 233.993,1814.85 h -7.222"
         id="path290" /><path
         style="fill:none;stroke:#000000"
         d="m 226.771,1814.85 v -17.43"
         id="path291" /><path
         style="fill:none;stroke:#000000"
         d="m 226.771,1797.42 h 7.222"
         id="path292" /><path
         style="fill:none;stroke:#000000"
         d="m 233.993,1797.42 v -17.35"
         id="path293" /><path
         style="fill:none;stroke:#000000"
         d="m 233.993,1780.07 h 33.621"
         id="path294" /><path
         style="fill:#3096d6;fill-opacity:1;stroke:#3096d6;stroke-width:0.0394192;stroke-opacity:1"
         d="m 503.42314,584.17091 c -0.9867,-0.27718 -1.21267,-1.00047 -1.30502,-4.177 -0.0267,-0.91952 -0.0355,-5.32543 -0.025,-12.51558 0.016,-10.90902 0.0215,-11.4027 0.1387,-12.49588 l 0.0275,-0.25622 1.68141,-0.0103 1.68141,-0.0103 0.0247,0.18766 c 0.10582,0.8041 0.11256,1.4901 0.12883,13.11715 0.0114,8.11813 0.003,12.3537 -0.0247,12.95356 -0.10271,2.20212 -0.32968,2.87456 -1.06425,3.15309 -0.29521,0.11193 -0.9564,0.14007 -1.26358,0.0538 z"
         id="path307"
         transform="matrix(2.3643558,0,0,2.3643558,-1008.7215,505.51469)" /><path
         style="fill:#3096d6;fill-opacity:1;stroke:#3096d6;stroke-width:0.0394192;stroke-opacity:1"
         d="m 502.29786,554.50942 c 0.0502,-0.35807 0.18548,-0.77388 0.31624,-0.97218 0.26682,-0.40465 0.60391,-0.56615 1.24218,-0.59513 0.85163,-0.0387 1.33958,0.22527 1.57838,0.85377 0.0651,0.17129 0.20524,0.8347 0.18138,0.85856 -0.004,0.004 -0.75829,0.0134 -1.67546,0.0201 l -1.6676,0.0123 z"
         id="path308"
         transform="matrix(2.3643558,0,0,2.3643558,-1008.7215,505.51469)" /></g><path
       style="fill:#3096d6;fill-opacity:1;stroke:#3096d6;stroke-width:1.38071;stroke-opacity:1"
       d="M 225.05622,260.95476 V 59.37066 h 176.60826 c 167.01406,0 177.04622,0.136718 184.67037,2.516681 19.0342,5.941746 33.43115,20.338692 39.37289,39.372899 2.37997,7.62414 2.51668,17.65631 2.51668,184.67036 v 176.60826 h -201.5841 -201.5841 z m 163.20136,104.75432 c 16.95156,-3.61559 30.86835,-13.11836 36.13352,-24.67296 3.9702,-8.71276 4.94848,-43.06036 1.63111,-57.26879 -4.21658,-18.05973 -10.65524,-25.30644 -38.73221,-43.593 -27.33213,-17.80145 -29.68533,-20.56865 -29.68533,-34.9079 0,-8.71347 3.68611,-14.72803 9.02628,-14.72803 4.71909,0 6.11296,3.65678 7.09553,18.61494 l 0.86324,13.14146 h 24.80785 24.80785 l -0.70324,-17.60409 c -0.88919,-22.25923 -2.32187,-26.98179 -10.63116,-35.04324 -10.53027,-10.21621 -26.15876,-15.00761 -48.95151,-15.00761 -28.18374,0 -47.6143,10.4662 -54.12123,29.15221 -2.08051,5.97463 -2.58225,11.37267 -2.55207,27.45702 0.0334,17.79296 0.40265,20.93726 3.31895,28.26183 4.33628,10.89098 12.62325,18.93282 35.99381,34.92911 28.2161,19.31288 28.45674,19.59104 29.84168,34.49244 1.37159,14.75775 -2.16877,22.43865 -10.34263,22.43865 -5.6854,0 -7.07263,-4.79952 -7.07263,-24.4697 v -18.3324 H 333.44219 307.899 v 12.32651 c 0,15.71075 2.28746,32.37517 5.41518,39.45023 4.79473,10.84593 17.76482,20.37268 33.24479,24.4189 10.47838,2.73887 31.09606,3.20584 41.69861,0.94442 z m 132.27123,-83.30805 v -80.72649 l 15.53302,-0.3904 15.53302,-0.3904 0.38115,-21.05587 0.38113,-21.05587 H 493.64087 434.9246 v 21.40105 21.40105 h 15.18784 15.18785 v 80.77171 80.77171 h 27.61426 27.61426 z"
       id="path295"
       transform="scale(0.26458333)" /><path
       style="fill:#3096d6;fill-opacity:1;stroke:#3096d6;stroke-width:1.38071;stroke-opacity:1"
       d="m 118.79377,321.51975 0.0524,-202.08807 50.40229,-28.994977 c 27.72126,-15.947236 50.99719,-29.202081 51.72429,-29.455211 0.83826,-0.291829 1.32201,73.275578 1.32201,201.049628 V 463.541 l -48.67014,28.05781 c -26.76857,15.4318 -50.0681,28.94684 -51.77674,30.03342 l -3.1066,1.9756 z"
       id="path296"
       transform="scale(0.26458333)" /><path
       style="fill:#1a72a8;fill-opacity:1;stroke:#3096d6;stroke-width:1.38071;stroke-opacity:1"
       d="m 225.96183,602.02584 c -15.17546,-4.84838 -28.14489,-15.89055 -35.26352,-30.02336 -6.00661,-11.92507 -7.06443,-19.85032 -7.04736,-52.79929 l 0.0161,-31.12114 19.97916,-11.39088 19.97916,-11.39088 H 427.30562 630.98585 V 302.37615 139.45201 h 19.32998 19.32998 V 372.10216 604.7523 L 451.83834,604.678 c -208.72529,-0.0711 -218.14395,-0.1817 -225.87651,-2.65216 z m 286.11862,-9.84965 c 6.76038,-2.35669 8.44836,-7.15886 8.44836,-24.03498 0,-8.06126 -0.63974,-15.85219 -1.42164,-17.31319 -2.20101,-4.11262 -8.78741,-6.82709 -16.56527,-6.82709 -5.98248,0 -7.70318,0.62484 -11.11427,4.03593 -4.00683,4.00682 -4.03593,4.15398 -4.03593,20.40348 0,17.4771 1.215,21.40264 7.39648,23.89717 4.21321,1.70024 12.16499,1.62607 17.29227,-0.16132 z M 374.17323,569.54412 v -22.78176 h 4.83249 4.8325 v 22.78176 22.78177 h 8.28428 8.28428 V 572.9959 c 0,-11.96618 0.52598,-19.32998 1.38071,-19.32998 0.85473,0 1.38071,7.3638 1.38071,19.32998 v 19.32999 h 7.59392 7.59392 v -21.87742 c 0,-19.91714 -0.2406,-22.09516 -2.68527,-24.30756 -1.95936,-1.77319 -4.38554,-2.29492 -8.97464,-1.92993 l -6.28935,0.5002 v -5.18761 -5.18763 h -25.5432 -25.54319 v 6.21321 c 0,5.98308 0.15342,6.21321 4.14214,6.21321 h 4.14214 v 22.78176 22.78177 h 8.28428 8.28428 z m 64.80639,-6.21321 -0.16634,-28.99497 h -8.15754 -8.15756 v 28.99497 28.99498 h 8.32389 8.32388 z m 19.71557,14.15231 0.39189,-14.84266 3.79696,-0.43689 c 3.69023,-0.42461 3.79696,-0.6793 3.79696,-9.06067 v -8.62378 l -12.42642,-0.26512 -12.42641,-0.26511 v 24.16844 24.16846 h 8.23756 8.23757 z m 24.55437,-14.15231 v -28.99497 h -7.59392 -7.59393 v 28.99497 28.99498 h 7.59393 7.59392 z m 62.13208,25.00056 c 0,-2.27691 -0.89052,-4.33614 -2.07107,-4.78917 -1.65049,-0.63335 -2.07107,-3.60738 -2.07107,-14.64521 0,-8.31316 0.552,-13.85046 1.38072,-13.85046 0.75939,0 1.38071,-2.17462 1.38071,-4.83249 0,-2.65787 -0.62132,-4.8325 -1.38071,-4.8325 -0.7594,0 -1.38072,-1.5533 -1.38072,-3.45178 0,-3.29837 -0.36819,-3.45178 -8.28427,-3.45178 -7.91609,0 -8.28428,0.15341 -8.28428,3.45178 0,1.89848 -0.62132,3.45178 -1.38072,3.45178 -0.75939,0 -1.38071,2.17463 -1.38071,4.8325 0,2.65787 0.62132,4.83249 1.38071,4.83249 0.83886,0 1.38072,6.11081 1.38072,15.57098 0,20.03659 0.96295,21.70828 12.5047,21.70828 8.12986,0 8.20599,-0.0371 8.20599,-3.99442 z M 347.65565,528.34369 c 3.292,-3.29229 3.72437,-4.76032 3.63941,-12.35712 -0.053,-4.74155 -0.78531,-9.85317 -1.62732,-11.35918 -0.842,-1.50602 -5.14788,-5.2747 -9.56859,-8.37486 -7.98754,-5.60148 -10.28659,-9.23527 -7.56498,-11.95688 0.97554,-0.97554 1.80008,0.0459 2.62613,3.25327 1.10866,4.30463 1.6778,4.70965 7.17933,5.10901 7.7101,0.55966 8.92939,-0.80853 7.74702,-8.69315 -0.7798,-5.20004 -1.78014,-6.89656 -5.35002,-9.07329 -8.18605,-4.99141 -23.49502,-2.65574 -27.13171,4.13945 -2.08152,3.88936 -1.73415,14.79712 0.61596,19.34173 1.12067,2.16714 4.38261,5.39823 7.24875,7.18018 l 5.21114,3.2399 -7.24875,0.41733 -7.24874,0.41734 0.13763,5.10551 c 0.22449,8.32758 1.77802,11.7928 6.82452,15.22237 3.99241,2.71321 6.08357,3.15266 12.77416,2.68442 6.41995,-0.4493 8.73818,-1.29791 11.73606,-4.29603 z m 53.39412,2.64924 c 5.47859,-2.2891 9.022,-8.26995 9.022,-15.22805 v -4.90106 h -7.59392 -7.59393 v 5.52285 c 0,3.03757 -0.62132,5.52285 -1.38071,5.52285 -0.75939,0 -1.38071,-2.79594 -1.38071,-6.21321 v -6.21321 h 9.16367 9.16366 l -0.74457,-9.27585 c -0.65652,-8.1788 -1.25299,-9.73012 -5.04332,-13.11677 -3.60717,-3.22301 -5.53151,-3.84092 -11.96164,-3.84092 -14.1807,0 -17.15638,4.24634 -17.12601,24.43909 0.0234,15.55617 1.41887,19.40541 8.28314,22.84819 5.83793,2.92799 10.95155,3.06366 17.19234,0.45609 z m 69.03565,0 c 5.47859,-2.2891 9.022,-8.26995 9.022,-15.22805 v -4.90106 h -7.59392 -7.59393 v 5.52285 c 0,3.03757 -0.62132,5.52285 -1.38071,5.52285 -0.75939,0 -1.38071,-2.79594 -1.38071,-6.21321 v -6.21321 h 9.16367 9.16366 l -0.74457,-9.27585 c -0.65652,-8.1788 -1.25299,-9.73012 -5.04332,-13.11677 -3.60717,-3.22301 -5.53151,-3.84092 -11.96164,-3.84092 -14.1807,0 -17.15638,4.24634 -17.12601,24.43909 0.0234,15.55617 1.41887,19.40541 8.28314,22.84819 5.83793,2.92799 10.95155,3.06366 17.19234,0.45609 z m -94.53148,-3.60388 c 0,-2.44674 -0.86038,-4.51564 -2.07107,-4.98022 -1.64782,-0.63234 -2.07107,-3.58615 -2.07107,-14.45416 0,-8.18579 0.55328,-13.65941 1.38072,-13.65941 0.75939,0 1.38071,-2.17462 1.38071,-4.83249 0,-2.65788 -0.62132,-4.8325 -1.38071,-4.8325 -0.7594,0 -1.38072,-1.5533 -1.38072,-3.45178 0,-3.29837 -0.36819,-3.45179 -8.28428,-3.45179 -7.91608,0 -8.28427,0.15342 -8.28427,3.45179 0,1.89848 -0.62132,3.45178 -1.38072,3.45178 -0.75939,0 -1.38071,2.17462 -1.38071,4.8325 0,2.65787 0.62132,4.83249 1.38071,4.83249 0.84162,0 1.38072,6.29203 1.38072,16.11466 0,19.87842 0.76816,21.16459 12.64041,21.16459 8.06508,0 8.07028,-0.003 8.07028,-4.18546 z m 64.66768,-16.87041 c 4.12404,-29.03874 4.36601,-27.26908 -3.72864,-27.26908 h -6.71588 l -0.87804,6.40591 c -0.48291,3.52326 -0.95304,9.27048 -1.04473,12.7716 l -0.16671,6.36568 -1.22678,-8.28428 c -2.80976,-18.97387 -1.861,-17.25891 -9.54807,-17.25891 -5.19358,0 -6.841,0.50425 -6.841,2.0939 0,1.82038 4.0426,28.77267 6.26117,41.74374 l 0.76753,4.48731 h 10.06542 10.06543 z m 58.27539,1.03553 0.74996,-19.32998 0.28557,19.67516 0.28557,19.67516 h 8.28428 8.28428 l -0.0204,-20.36551 c -0.028,-28.05903 0.57946,-27.17597 -19.00273,-27.62207 l -15.49475,-0.35299 v 24.23919 24.23919 l 7.9391,-0.41409 7.9391,-0.41407 z"
       id="path297"
       transform="scale(0.26458333)" /><path
       style="fill:#3096d6;fill-opacity:1;stroke:#3096d6;stroke-width:1.38071;stroke-opacity:1"
       d="m 119.20491,372.79252 c 0.49586,-83.15345 0.90608,-174.17695 0.91162,-202.27446 l 0.0101,-51.08638 50.04857,-28.673812 50.04857,-28.673809 0.69035,8.65347 c 0.3797,4.759409 0.69036,94.978661 0.69036,200.487221 v 191.83374 l -49.33314,28.5434 c -27.13323,15.69887 -50.37597,29.40634 -51.65054,30.46104 -2.1679,1.79395 -2.25924,-7.83592 -1.41585,-149.27041 z"
       id="path298"
       transform="scale(0.26458333)" /><path
       style="fill:#3096d6;fill-opacity:1;stroke:#3096d6;stroke-width:1.38071;stroke-opacity:1"
       d="m 118.75956,321.7586 0.0375,-201.70649 7.2209,-4.5759 c 3.97149,-2.51675 10.63816,-6.4521 14.81482,-8.74523 9.6663,-5.30712 15.29156,-8.51036 50.18867,-28.579331 15.71052,-9.034958 29.01873,-15.973199 29.57381,-15.418315 0.55508,0.554884 1.18247,90.893456 1.39422,200.752386 0.36661,190.21433 0.26781,199.81538 -2.07107,201.25023 -1.35083,0.82869 -6.18398,3.57279 -10.74034,6.09799 -4.55635,2.52518 -12.17847,6.97305 -16.93805,9.88415 -4.75958,2.91109 -8.97865,5.29289 -9.37572,5.29289 -0.39707,0 -2.40542,1.15514 -4.463,2.56696 -2.92669,2.00817 -54.08029,31.9693 -58.634,34.34247 -0.57483,0.29956 -1.02829,-90.22324 -1.00769,-201.16181 z"
       id="path299"
       transform="scale(0.26458333)" /><path
       style="fill:#3096d6;fill-opacity:1;stroke:#3096d6;stroke-width:0.0553716;stroke-opacity:1"
       d="m 628.83512,168.48188 c -0.0181,-1.10397 -0.0463,-5.69497 -0.0628,-10.20221 -0.0535,-14.61389 -0.20773,-27.96473 -0.4165,-36.0469 -0.2714,-10.50706 -0.66667,-15.84696 -1.41816,-19.15857 -0.344,-1.51594 -1.19968,-4.16838 -1.95153,-6.049347 l -0.1162,-0.2907 h 0.18497 c 0.17883,0 0.18998,0.01333 0.33588,0.401444 1.96344,5.223013 3.17294,10.308033 3.71076,15.600943 0.29166,2.87038 0.27283,0.90736 0.29189,30.44053 l 0.0176,27.31203 h -0.27154 -0.27154 z"
       id="path300"
       transform="scale(0.26458333)" /><path
       style="fill:#3096d6;fill-opacity:1;stroke:#3096d6;stroke-width:0.0553716;stroke-opacity:1"
       d="M 556.76125,95.43292 V 59.136849 l 0.89979,6.63e-4 c 2.52078,0.0019 11.26315,0.231689 14.79805,0.389033 7.4764,0.332785 10.79391,0.738473 13.99641,1.711581 5.69438,1.730285 11.60404,4.588019 16.60924,8.031722 10.99441,7.564433 19.04989,18.524485 23.19748,31.561802 0.45224,1.42155 1.04174,4.04432 1.0423,4.63737 7e-5,0.0685 0.027,0.12459 0.0599,0.12459 0.0358,0 0.0473,-0.061 0.0287,-0.15228 -0.0171,-0.0837 -0.0707,-0.4139 -0.11925,-0.73367 -0.20557,-1.35526 -0.58575,-2.84213 -1.22466,-4.789641 -0.41231,-1.256791 -1.05318,-3.010985 -1.13791,-3.114652 -0.0769,-0.09412 0.12345,-0.09412 0.25143,0 0.18231,0.134064 1.19025,3.023828 1.83137,5.250493 0.94153,3.27004 1.68313,6.93643 2.00119,9.89366 0.0139,0.12944 0.0393,0.3537 0.0565,0.49834 0.0172,0.14465 0.0325,0.30037 0.0342,0.34605 0.002,0.0457 0.0247,0.26556 0.0513,0.48862 0.0589,0.49409 0.10512,1.09913 0.1319,1.72624 0.0606,1.41782 0.14284,14.25007 0.10093,15.73938 l -0.0277,0.98284 h -0.38213 -0.38212 l -0.007,-0.34607 c -0.004,-0.19034 -0.0243,-0.80704 -0.0454,-1.37045 l -0.0383,-1.02437 -0.01,1.37045 -0.01,1.37044 h -35.8531 -35.8531 z m 71.71505,31.70023 -0.0474,-1.07975 -0.008,1.24587 c -0.004,0.68522 0.0107,1.30815 0.0331,1.38429 0.0666,0.22609 0.0747,-0.34811 0.0219,-1.55041 z m -0.0552,-2.71321 -0.0481,-0.85826 -0.007,1.02438 c -0.004,0.5634 0.0109,1.08667 0.0334,1.1628 0.0664,0.22559 0.0762,-0.36304 0.0222,-1.32892 z m -0.056,-2.35329 -0.0477,-0.71983 -0.008,0.97362 c -0.004,0.53549 0.0107,0.9925 0.0335,1.01558 0.065,0.0656 0.0746,-0.48146 0.0223,-1.26937 z m -0.055,-1.91032 -0.0483,-0.69214 -0.008,0.8122 c -0.004,0.44671 0.0107,0.85784 0.0336,0.91363 0.0672,0.16413 0.0765,-0.26149 0.0227,-1.03369 z m -0.0552,-1.82726 -0.0489,-0.5814 -0.008,0.70146 c -0.004,0.3858 0.011,0.7471 0.0338,0.80288 0.0671,0.16385 0.0778,-0.26938 0.0228,-0.92294 z m -0.056,-1.49503 -0.0485,-0.52603 -0.007,0.5814 c -0.007,0.59054 0.0583,1.07653 0.0892,0.66446 0.008,-0.10659 -0.007,-0.43052 -0.0339,-0.71983 z m -0.055,-1.41198 -0.0491,-0.49834 -0.007,0.52603 c -0.007,0.5368 0.0576,0.99328 0.0899,0.63677 0.008,-0.0914 -0.007,-0.39037 -0.034,-0.66446 z m -0.0562,-1.27355 -0.0485,-0.44297 -0.007,0.53065 c -0.004,0.29185 0.0113,0.54964 0.0342,0.57287 0.0659,0.067 0.0741,-0.1815 0.0217,-0.66055 z m -0.0544,-1.10743 -0.0502,-0.3876 -0.007,0.4246 c -0.007,0.42895 0.0588,0.78018 0.0917,0.48903 0.009,-0.0761 -0.007,-0.31285 -0.0345,-0.52603 z m -0.0564,-0.99669 -0.0497,-0.33222 -0.007,0.4199 c -0.004,0.23094 0.0119,0.4389 0.0348,0.46212 0.0657,0.0668 0.0757,-0.18793 0.0216,-0.5498 z m -0.0549,-0.91363 -0.0507,-0.30454 -0.006,0.36453 c -0.004,0.20049 0.0122,0.38351 0.0351,0.4067 0.0669,0.0679 0.0767,-0.13873 0.0221,-0.46669 z m -0.0563,-0.80288 -0.0492,-0.33223 -0.007,0.36453 c -0.004,0.20049 0.0119,0.38337 0.0348,0.40641 0.0667,0.0673 0.0739,-0.0823 0.0212,-0.43871 z m -0.0562,-0.74752 -0.0497,-0.24917 -0.006,0.28147 c -0.003,0.15481 0.0126,0.30032 0.0355,0.32335 0.0657,0.0663 0.0744,-0.0849 0.0203,-0.35565 z m -0.0543,-0.69215 -0.0518,-0.22148 -0.006,0.28147 c -0.003,0.15481 0.0131,0.30045 0.036,0.32364 0.0662,0.0672 0.0779,-0.14237 0.0214,-0.38363 z m -0.0888,-1.08004 c -0.0458,-0.43548 -0.0962,-0.80459 -0.11183,-0.82026 -0.0405,-0.0405 -0.0373,0.0436 0.0315,0.82056 0.0631,0.71245 0.0887,0.86644 0.13617,0.81895 0.0151,-0.0151 -0.01,-0.38377 -0.0559,-0.81925 z m -0.1059,-1.03792 c -0.0164,-0.0838 -0.0466,-0.32669 -0.0672,-0.53987 -0.0206,-0.21318 -0.0597,-0.43744 -0.0868,-0.49835 -0.0326,-0.0731 -0.039,-0.007 -0.019,0.19381 0.0167,0.16749 0.0458,0.46027 0.0648,0.65061 0.019,0.19034 0.0578,0.34607 0.0863,0.34607 0.0285,0 0.0384,-0.0685 0.022,-0.15227 z"
       id="path301"
       transform="scale(0.26458333)" /><path
       style="fill:#3096d6;fill-opacity:1;stroke:#3096d6;stroke-width:0.0553716;stroke-opacity:1"
       d="M 556.76125,95.43292 V 59.136849 l 1.20433,1.8e-4 c 1.41075,2.12e-4 4.96083,0.07674 9.01173,0.194253 11.09197,0.321781 15.54129,0.739282 19.14691,1.79665 4.24598,1.24516 8.96935,3.302874 13.13472,5.722079 10.55739,6.131634 19.05337,15.493449 24.16375,26.626322 0.46196,1.006364 1.27356,2.908824 1.35691,3.180694 0.0272,0.08871 0.0687,0.110372 0.17329,0.09038 0.19184,-0.03667 0.27104,0.04785 0.44418,0.474078 0.42758,1.052509 1.48311,4.238555 1.70969,5.160565 0.0112,0.0457 0.0844,0.31977 0.16264,0.60909 0.31295,1.15746 0.4928,1.86565 0.56249,2.21486 0.0152,0.0761 0.0387,0.18827 0.0523,0.24918 0.0136,0.0609 0.0274,0.12897 0.0307,0.15124 0.003,0.0223 0.0299,0.12195 0.0591,0.22149 0.0292,0.0995 0.0666,0.26819 0.0831,0.37478 0.0165,0.10659 0.0559,0.29338 0.0875,0.41507 0.0629,0.2419 0.0877,0.35742 0.13094,0.60931 0.0157,0.0914 0.076,0.40283 0.13399,0.69214 0.11547,0.57584 0.10788,0.53109 0.3051,1.79958 0.21872,1.40673 0.48124,3.67032 0.55227,4.76195 0.0772,1.18584 0.18319,16.40998 0.11792,16.93234 l -0.0395,0.31591 h -0.38362 c -0.21099,0 -0.38475,-0.006 -0.38613,-0.0138 -10e-4,-0.008 -0.0169,-0.31285 -0.0345,-0.6783 -0.0176,-0.36546 -0.0414,-0.67484 -0.0529,-0.68754 -0.0115,-0.0127 -0.0209,0.29256 -0.0209,0.67831 v 0.70137 h -35.8531 -35.8531 z m 71.70671,32.37865 -0.0272,-0.53999 -0.0167,0.46603 c -0.0147,0.40909 0.004,0.61343 0.0555,0.61384 0.009,7e-5 0.003,-0.24287 -0.0116,-0.53988 z m -0.0707,-3.07324 c -0.0117,-0.12943 -0.0212,-0.0235 -0.0212,0.23533 0,0.25886 0.01,0.36476 0.0212,0.23533 0.0117,-0.12943 0.0117,-0.34123 0,-0.47066 z m -0.0285,-2.02099 c -0.0273,-0.55564 -0.0506,-0.6101 -0.0591,-0.1385 -0.005,0.25125 0.0104,0.45685 0.0332,0.45689 0.0228,4e-5 0.0345,-0.14323 0.0259,-0.31839 z m -0.0555,-2.04882 c -0.0287,-0.455 -0.0519,-0.49806 -0.0597,-0.11074 -0.004,0.20556 0.0113,0.37375 0.0344,0.37375 0.0231,0 0.0345,-0.11835 0.0253,-0.26301 z m -0.0549,-1.91032 c -0.0301,-0.38788 -0.0545,-0.421 -0.0613,-0.0831 -0.004,0.17511 0.0129,0.31839 0.0366,0.31839 0.0237,0 0.0348,-0.1059 0.0248,-0.23533 z m -0.0834,-1.74345 c -0.0127,-0.0842 -0.0235,-0.0284 -0.0239,0.12383 -4.2e-4,0.15227 0.01,0.22114 0.0231,0.15303 0.0131,-0.0681 0.0135,-0.19269 7.6e-4,-0.27686 z m -0.0569,-1.44042 c -0.0139,-0.0533 -0.0253,-0.01 -0.0253,0.0969 0,0.10659 0.0114,0.1502 0.0253,0.0969 0.0139,-0.0533 0.0139,-0.1405 0,-0.1938 z m -0.0256,-1.10743 c -0.0319,-0.32146 -0.0587,-0.34488 -0.0636,-0.0554 -0.002,0.14466 0.0156,0.26301 0.0399,0.26301 0.0243,0 0.035,-0.0934 0.0237,-0.20764 z m -0.0851,-1.32892 c -0.0139,-0.0533 -0.0253,-0.01 -0.0253,0.0969 0,0.10659 0.0114,0.1502 0.0253,0.0969 0.0139,-0.0533 0.0139,-0.1405 0,-0.1938 z m -0.0544,-0.96835 c -0.0132,-0.0689 -0.0246,-0.0256 -0.0252,0.0962 -6.2e-4,0.12182 0.0102,0.17817 0.0241,0.12523 0.0139,-0.0529 0.0144,-0.15261 10e-4,-0.22148 z m -0.0564,-0.91428 c -0.0139,-0.0533 -0.0253,-0.01 -0.0253,0.0969 0,0.10659 0.0114,0.1502 0.0253,0.0969 0.0139,-0.0533 0.0139,-0.14051 0,-0.1938 z m -0.0552,-0.82952 c -0.014,-0.0539 -0.0264,-0.0232 -0.0276,0.0682 -10e-4,0.0914 0.0104,0.13544 0.0255,0.0979 0.0152,-0.0375 0.0161,-0.11224 0.002,-0.16611 z m -0.0571,-0.74857 c -0.0154,-0.0381 -0.0279,-0.007 -0.0279,0.0692 0,0.0761 0.0126,0.10729 0.0279,0.0692 0.0154,-0.0381 0.0154,-0.10036 0,-0.13843 z m -0.0554,-0.71983 c -0.0154,-0.0381 -0.0279,-0.007 -0.0279,0.0692 0,0.0761 0.0126,0.10729 0.0279,0.0692 0.0154,-0.0381 0.0154,-0.10036 0,-0.13843 z m -0.0529,-0.77456 c -0.0132,-0.0689 -0.0246,-0.0256 -0.0252,0.0963 -6.2e-4,0.12181 0.0102,0.17817 0.0241,0.12523 0.0139,-0.0529 0.0144,-0.15261 10e-4,-0.22149 z m -0.0554,-0.55371 c -0.0132,-0.0689 -0.0246,-0.0256 -0.0252,0.0962 -6.2e-4,0.12182 0.0102,0.17817 0.0241,0.12523 0.0139,-0.0529 0.0144,-0.15261 10e-4,-0.22148 z m -0.11154,-1.02397 c -0.014,-0.0539 -0.0265,-0.0232 -0.0276,0.0682 -10e-4,0.0914 0.0104,0.13544 0.0255,0.098 0.0152,-0.0375 0.0161,-0.11224 0.002,-0.16612 z m -0.031,-0.36097 c -0.018,-0.11237 -0.0369,-0.14235 -0.0505,-0.0798 -0.0206,0.0952 0.017,0.25978 0.0594,0.25978 0.0109,0 0.007,-0.081 -0.009,-0.17996 z m -0.13515,-0.91258 c -0.014,-0.0539 -0.0265,-0.0232 -0.0276,0.0682 -0.001,0.0914 0.0104,0.13544 0.0255,0.0979 0.0152,-0.0375 0.0161,-0.11224 0.002,-0.16612 z m -0.0559,-0.3575 c -0.0177,-0.0442 -0.0308,-0.0311 -0.0335,0.0334 -0.002,0.0584 0.0107,0.0911 0.0291,0.0727 0.0184,-0.0184 0.0204,-0.0662 0.004,-0.10613 z m -0.0554,-0.33223 c -0.0177,-0.0442 -0.0308,-0.031 -0.0335,0.0335 -0.002,0.0584 0.0107,0.0911 0.0291,0.0727 0.0184,-0.0184 0.0204,-0.0662 0.004,-0.10613 z m -0.0554,-0.33223 c -0.0177,-0.0442 -0.0308,-0.031 -0.0334,0.0335 -0.002,0.0584 0.0107,0.0911 0.0291,0.0727 0.0184,-0.0184 0.0204,-0.0662 0.004,-0.10613 z m -0.0565,-0.33569 c -0.0154,-0.0381 -0.0279,-0.007 -0.0279,0.0692 0,0.0761 0.0126,0.10728 0.0279,0.0692 0.0154,-0.0381 0.0154,-0.10037 0,-0.13843 z m -0.0554,-0.27686 c -0.0154,-0.0381 -0.0279,-0.007 -0.0279,0.0692 0,0.0761 0.0126,0.10729 0.0279,0.0692 0.0154,-0.0381 0.0154,-0.10036 0,-0.13843 z m -0.0554,-0.27686 c -0.0154,-0.0381 -0.0279,-0.007 -0.0279,0.0692 0,0.0761 0.0126,0.10728 0.0279,0.0692 0.0154,-0.0381 0.0154,-0.10036 0,-0.13843 z m -0.0542,-0.21802 c -0.0177,-0.0442 -0.0308,-0.0311 -0.0335,0.0334 -0.002,0.0584 0.0107,0.0911 0.0291,0.0727 0.0184,-0.0184 0.0204,-0.0661 0.004,-0.10612 z m -0.0686,-0.34646 c -0.0208,-0.11112 -0.049,-0.19097 -0.0625,-0.17743 -0.0135,0.0135 -0.008,0.11553 0.0133,0.22665 0.0208,0.11112 0.049,0.19096 0.0625,0.17743 0.0135,-0.0135 0.008,-0.11553 -0.0133,-0.22665 z m -0.0975,-0.37338 c -0.0177,-0.0442 -0.0308,-0.0311 -0.0335,0.0335 -0.002,0.0584 0.0107,0.0911 0.0291,0.0727 0.0184,-0.0184 0.0204,-0.0661 0.004,-0.10613 z m -0.11074,-0.3876 c -0.0177,-0.0442 -0.0308,-0.031 -0.0335,0.0335 -0.002,0.0584 0.0107,0.0911 0.0291,0.0727 0.0184,-0.0184 0.0204,-0.0662 0.004,-0.10613 z m -0.0554,-0.22148 c -0.0177,-0.0442 -0.0308,-0.031 -0.0335,0.0335 -0.002,0.0584 0.0107,0.0911 0.0291,0.0727 0.0184,-0.0184 0.0204,-0.0662 0.004,-0.10613 z m -0.11074,-0.3876 c -0.0177,-0.0442 -0.0308,-0.0311 -0.0335,0.0335 -0.002,0.0584 0.0107,0.0911 0.0291,0.0727 0.0184,-0.0184 0.0204,-0.0662 0.004,-0.10613 z m -0.48106,-1.524096 c -0.0603,-0.09409 -0.0619,-0.09397 -0.0316,0.0024 0.0175,0.05578 0.0338,0.130536 0.0362,0.166116 0.003,0.0467 0.0119,0.046 0.0316,-0.002 0.015,-0.0369 -10e-4,-0.11167 -0.0362,-0.166118 z m -0.11074,-0.33223 c -0.0603,-0.09409 -0.0619,-0.09397 -0.0316,0.0024 0.0175,0.05579 0.0338,0.130537 0.0362,0.166114 0.003,0.04669 0.012,0.04601 0.0316,-0.0024 0.015,-0.03692 -10e-4,-0.111672 -0.0362,-0.166115 z m -0.11075,-0.332229 c -0.0603,-0.09409 -0.0619,-0.09397 -0.0316,0.0024 0.0175,0.05579 0.0338,0.130537 0.0362,0.166115 0.003,0.04669 0.0119,0.04601 0.0316,-0.0024 0.015,-0.03692 -10e-4,-0.111672 -0.0362,-0.166114 z m -0.32305,-0.935942 c -0.31568,-0.880439 -0.57072,-1.526708 -0.5935,-1.50393 -0.011,0.01096 0.10181,0.337205 0.2506,0.724998 0.14879,0.387793 0.32474,0.867997 0.391,1.06712 0.0663,0.199122 0.13117,0.351348 0.14424,0.338279 0.0131,-0.01307 -0.0735,-0.294979 -0.19234,-0.626467 z"
       id="path302"
       transform="scale(0.26458333)" /><path
       style="fill:#3096d6;fill-opacity:1;stroke:#3096d6;stroke-width:0.0553716;stroke-opacity:1"
       d="M 556.76125,95.4239 V 59.118808 l 2.83779,0.03602 c 2.90878,0.03692 4.94383,0.08693 9.4547,0.232345 9.28838,0.29943 13.51076,0.720356 16.89354,1.684107 4.80376,1.368583 10.36038,3.882335 15.00049,6.786056 8.53933,5.343792 15.71994,12.957349 20.56321,21.803036 1.04079,1.900886 2.33038,4.613611 3.05348,6.423168 0.24339,0.609094 0.26967,0.650616 0.41176,0.650616 0.25223,0 0.32742,0.130254 0.75115,1.301232 1.70451,4.710362 2.78708,9.387342 3.37723,14.590412 0.20834,1.83687 0.24171,3.19201 0.284,11.53362 l 0.0384,7.57456 -0.43826,-0.0163 -0.43825,-0.0163 -0.0317,-0.3876 -0.0317,-0.38761 -0.01,0.40145 -0.01,0.40144 h -35.8531 -35.8531 z"
       id="path303"
       transform="scale(0.26458333)" /><path
       style="fill:#3096d6;fill-opacity:1;stroke:#3096d6;stroke-width:0.0553716;stroke-opacity:1"
       d="M 556.76125,95.406021 V 59.08289 l 0.40144,0.02583 c 0.2208,0.01421 1.62239,0.0391 3.11466,0.05532 5.86929,0.06379 13.67916,0.348975 17.49742,0.638934 4.90988,0.372859 7.43952,0.879188 11.22826,2.247436 11.2962,4.079456 20.83666,11.073506 27.86217,20.425566 3.01919,4.01902 5.35765,8.068402 7.29059,12.624721 0.72979,1.720255 0.6832,1.633462 0.87678,1.633462 0.20982,0 0.27876,0.129338 0.7158,1.342835 1.829,5.078486 2.96308,10.162106 3.468,15.545496 0.10882,1.16028 0.1875,6.64795 0.19033,13.27518 l 0.002,4.83101 -36.32376,2.4e-4 -36.32376,2.4e-4 z"
       id="path304"
       transform="scale(0.26458333)" /><path
       style="fill:#3096d6;fill-opacity:1;stroke:#3096d6;stroke-width:0.00390625;stroke-opacity:1"
       d="m 629.86719,143.05469 v -2.60157 h 0.21289 0.21289 v 2.60157 2.60156 h -0.21289 -0.21289 z"
       id="path305"
       transform="scale(0.26458333)" /><path
       style="fill:#3096d6;fill-opacity:1;stroke:#3096d6;stroke-width:0.00390625;stroke-opacity:1"
       d="m 629.86719,139.9082 v -0.54101 h 0.21289 0.21289 v 0.54101 0.54102 h -0.21289 -0.21289 z"
       id="path306"
       transform="scale(0.26458333)" /><path
       style="fill:#69b7e8;fill-opacity:1;stroke:#3096d6;stroke-width:0.328374;stroke-opacity:1"
       d="m 118.21481,332.16232 v -192.2748 h 52.17091 52.17092 l 0.22549,79.22034 c 0.12401,43.57119 0.17924,116.45347 0.12271,161.96063 l -0.10277,82.7403 -4.59724,2.66969 c -2.52848,1.46833 -11.46848,6.63107 -19.86665,11.47272 -8.39818,4.84165 -26.72148,15.48226 -40.71844,23.64578 -25.92473,15.1202 -37.34368,21.74998 -38.66609,22.44939 l -0.73884,0.39077 z"
       id="path309"
       transform="scale(0.26458333)" /><path
       style="fill:#69b7e8;fill-opacity:1;stroke:#3096d6;stroke-width:0.328374;stroke-opacity:1"
       d="m 118.29229,129.51464 0.0867,-10.37289 9.68705,-5.6597 c 5.32788,-3.11284 14.48952,-8.39316 20.35922,-11.73404 5.86969,-3.340886 23.45414,-13.391566 39.07656,-22.334847 33.71342,-19.299744 33.51933,-19.194077 33.9249,-18.469372 0.40466,0.723081 0.78676,19.417473 1.06152,51.934929 l 0.22822,27.0088 h -52.25544 -52.25544 z"
       id="path310"
       transform="scale(0.26458333)" /></g></svg>
